<svg id="log_deb992" data-name="log deb992" xmlns="http://www.w3.org/2000/svg" viewBox="0 0 642.5 288.43"><defs><style>.cls-1{fill:#121856;}.cls-1,.cls-2,.cls-3{stroke:#121856;stroke-miterlimit:10;}.cls-2,.cls-3{fill:none;}.cls-3{stroke-width:3px;}</style></defs><path class="cls-1" d="M1060,468.94v14H985.23a102.47,102.47,0,0,1-13.42,43.9l-11.74-7.69a88.3,88.3,0,0,0,11.12-36.21H938.35c-8.19,22.81-31.45,39.25-58.85,39.25-1.28,0-2.56,0-3.82-.11l-1.07-.07c-.48,0-1-.07-1.45-.12l-1.25-.13-1.1-.13-.79-.11c-.4,0-.81-.11-1.21-.18-1-.17-2.08-.36-3.1-.58-.38-.07-.74-.15-1.11-.24l-1.08-.26-1.27-.32-1.26-.35c-.7-.2-1.39-.41-2.08-.64l-.4-.13-1.66-.58-1.49-.56-.15-.06-1.6-.65-1.6-.71-1.56-.74-1.54-.78q-2.1-1.11-4.11-2.36l-.94-.61c-.66-.42-1.31-.86-1.94-1.31l-.67-.48a59.75,59.75,0,0,1-6.11-5.07q-.61-.57-1.2-1.17c-1.22-1.22-2.37-2.48-3.47-3.79-.33-.39-.65-.79-1-1.18a57.14,57.14,0,0,1-4.78-7c-.24-.42-.47-.83-.7-1.26-.41-.76-.81-1.54-1.19-2.33-.16-.34-.33-.68-.48-1-.28-.61-.55-1.23-.8-1.85-.32-.77-.63-1.56-.91-2.35H793.81c.06.73.13,1.47.21,2.19s.16,1.45.26,2.17c.18,1.37.39,2.73.64,4.08.07.4.14.8.23,1.2s.14.75.22,1.13c.32,1.56.69,3.1,1.09,4.62.14.55.29,1.09.45,1.63s.39,1.34.6,2,.35,1.12.54,1.68c.1.32.21.63.32.94.16.48.33,1,.51,1.43s.42,1.14.63,1.7c.63,1.6,1.29,3.18,2,4.73.15.34.31.68.47,1s.26.55.4.83.39.8.59,1.19l.24.48c.22.43.44.86.67,1.29l.36.66.66,1.2.27.47c.29.52.59,1,.9,1.54.6,1,1.23,2,1.88,3,.21.33.43.67.66,1s.59.87.89,1.3.8,1.13,1.21,1.69.83,1.12,1.25,1.66.68.88,1,1.31l.43.54c.31.38.62.76.94,1.13.7.83,1.41,1.65,2.14,2.45.39.44.79.87,1.2,1.3q2.55,2.72,5.33,5.21l.24.22.84.73c.33.3.66.58,1,.86.67.57,1.36,1.13,2,1.68.36.3.73.58,1.11.87s1,.79,1.54,1.16l.18.13c.38.28.76.56,1.15.82L823,559.59a103.16,103.16,0,0,1-43.24-76.65H748.51q0,.57,0,1.14a60.91,60.91,0,0,0,31.39,51.78c-13.46,22.24-26.23,44.9-39.43,67.29V534.5h-4v68.8C721,581.69,707.06,559,692.6,536.65A61,61,0,0,0,727.44,484c0-.37,0-.73,0-1.1H702.23a103,103,0,0,1-42.18,75.88l-7.77-11.66q3.32-2.43,6.37-5.16a88.79,88.79,0,0,0,29.54-59.06H666.54c-5.33,20-22,35.91-43.39,41.46a66.24,66.24,0,0,1-16.81,2.14c-29.11,0-53.54-18.57-60.2-43.6H510.81a88.38,88.38,0,0,0,9.73,33.65l-11.77,7.71a102.42,102.42,0,0,1-12-41.36H418.5v-14H705.66c-44.37-28.92-83.9-43.61-110.55-53.3C527.39,391,464.36,381.23,419.5,377.15V359.66c6.35.61,13.07,1.34,20.12,2.21l5.19.66c3.3.43,6.68.89,10.11,1.39l1,.16A754.49,754.49,0,0,1,549.5,384.5c7.28,2.08,14.77,4.24,22.49,6.58q11.68,3.81,23.6,8.23c20.86,7.74,49.64,18.6,82.42,37l.15.09A473,473,0,0,1,726.3,468.5h1.13l.59.44h21.87l.61-.44h.25c11.12-7.77,25.5-17.2,42.75-27,7.67-4.35,36.1-20.25,79.17-36.46l.23-.09q5-1.83,9.6-3.45a685.09,685.09,0,0,1,131.6-32.29q9.75-1.35,20-2.46,12.36-1.33,25.41-2.25V378c-6.77.57-14,1.26-21.54,2.11-42.74,4.8-97.43,14.68-155.66,35.49-26.88,9.61-66.87,24.21-111.81,53.3Z" transform="translate(-418 -316.55)"/><path class="cls-2" d="M572,391.08c-7.72-2.34-15.21-4.5-22.49-6.58A754.49,754.49,0,0,0,456,364.08,697.26,697.26,0,0,1,572,391.08Z" transform="translate(-418 -316.55)"/><path class="cls-2" d="M727.43,468.5H726.3a473,473,0,0,0-48.14-32.08A452.35,452.35,0,0,1,726.73,468Z" transform="translate(-418 -316.55)"/><path class="cls-2" d="M872.67,405c-43.07,16.21-71.5,32.11-79.17,36.46-17.25,9.8-31.63,19.23-42.75,27h-.25C798.19,433.92,841.91,416.25,872.67,405Z" transform="translate(-418 -316.55)"/><path class="cls-2" d="M1059.5,364v.46q-13,.9-25.41,2.25-10.23,1.1-20,2.46,10.35-1.51,20-2.63l2-.23C1044.34,365.4,1052.17,364.65,1059.5,364Z" transform="translate(-418 -316.55)"/><g id="Layer_7_copy_3" data-name="Layer 7 copy 3"><g id="Layer_8_copy_3" data-name="Layer 8 copy 3"><path class="cls-3" d="M994.17,337.18A477.4,477.4,0,0,0,741.46,468.5H739a404.34,404.34,0,0,1,67.46-67.65c14.15-11.16,55.13-41.94,116.69-64.05a425,425,0,0,1,68.4-18.3Z" transform="translate(-418 -316.55)"/><path class="cls-3" d="M738.68,468.5h-2c-4.77-4.74-44-43.15-91.81-71.92a477.17,477.17,0,0,0-159.11-60.26l2.57-18a419.91,419.91,0,0,1,69.26,19.16c62.33,23.15,103.84,55.38,118.16,67.07A415.87,415.87,0,0,1,738.68,468.5Z" transform="translate(-418 -316.55)"/><path class="cls-2" d="M994.5,339.5" transform="translate(-418 -316.55)"/><path class="cls-2" d="M485.29,339.31" transform="translate(-418 -316.55)"/></g></g><g id="Layer_6_copy_3" data-name="Layer 6 copy 3"><path class="cls-3" d="M1012,348.94A649.33,649.33,0,0,0,894.9,381.16c-7.13,2.71-14.55,5.54-22.21,8.62,24.69-10.25,67.79-26.37,116.47-36.73C995.28,351.74,1004.46,350.13,1012,348.94Z" transform="translate(-418 -316.55)"/><path class="cls-2" d="M1012.55,348.85" transform="translate(-418 -316.55)"/><path class="cls-3" d="M498.76,354.55c8.11,1.94,16,4.06,23.78,6.29a560,560,0,0,0-55.93-12l0-.25q3.53.44,7,.9S485.72,351.43,498.76,354.55Z" transform="translate(-418 -316.55)"/><path class="cls-2" d="M652.18,414.85c-8.9-5.1-17.27-9.62-24.92-13.57l1.17.59C636.94,406.25,644.86,410.61,652.18,414.85Z" transform="translate(-418 -316.55)"/><path class="cls-2" d="M468.52,333.45" transform="translate(-418 -316.55)"/><path class="cls-2" d="M465.52,355.44" transform="translate(-418 -316.55)"/><path class="cls-2" d="M466.61,348.87" transform="translate(-418 -316.55)"/><path class="cls-2" d="M470.5,325.5" transform="translate(-418 -316.55)"/><path class="cls-3" d="M1012.55,348.85l-.33.06-.19,0c-7.57,1.19-16.75,2.8-22.87,4.11-48.68,10.36-91.78,26.48-116.47,36.73l-.91.37-.45.19c-31.77,12.86-67.71,30.21-104.83,61.16-8.17,6.81-14.64,12.81-19,17h-6A477.4,477.4,0,0,1,994.17,337.18c5.75-1.05,11.21-1.93,16.33-2.68Z" transform="translate(-418 -316.55)"/><path class="cls-3" d="M1012,348.94A649.33,649.33,0,0,0,894.9,381.16c-7.13,2.71-14.55,5.54-22.21,8.62,24.69-10.25,67.79-26.37,116.47-36.73C995.28,351.74,1004.46,350.13,1012,348.94Z" transform="translate(-418 -316.55)"/><path class="cls-2" d="M1012.55,348.85" transform="translate(-418 -316.55)"/><path class="cls-3" d="M736.64,468.5H731.5c-4-3.16-9.83-7.7-17-13a643.91,643.91,0,0,0-59.92-39.25l-2-1.14-.44-.26c-7.32-4.24-15.24-8.6-23.75-13l-1.17-.59-.35-.18-.29-.15-.45-.22c-22.73-11.67-39.07-18.25-44.6-20.43a550.79,550.79,0,0,0-59-19.46h0c-7.73-2.23-15.67-4.35-23.78-6.29-13-3.12-25.13-5-25.13-5q-3.45-.47-7-.9l2.51-15.07c5.19.77,10.73,1.69,16.56,2.77a477.17,477.17,0,0,1,159.11,60.26C692.59,425.35,731.87,463.76,736.64,468.5Z" transform="translate(-418 -316.55)"/><path class="cls-3" d="M498.76,354.55c8.11,1.94,16,4.06,23.78,6.29a560,560,0,0,0-55.93-12l0-.25q3.53.44,7,.9S485.72,351.43,498.76,354.55Z" transform="translate(-418 -316.55)"/><path class="cls-2" d="M652.18,414.85c-8.9-5.1-17.27-9.62-24.92-13.57l1.17.59C636.94,406.25,644.86,410.61,652.18,414.85Z" transform="translate(-418 -316.55)"/><path class="cls-2" d="M468.52,333.45" transform="translate(-418 -316.55)"/><path class="cls-2" d="M465.52,355.44" transform="translate(-418 -316.55)"/><path class="cls-2" d="M466.61,348.87" transform="translate(-418 -316.55)"/></g><g id="Layer_9_copy_3" data-name="Layer 9 copy 3"><path class="cls-3" d="M1034.31,367.51q-9.6,1.07-20,2.52a653.66,653.66,0,0,0-101.59,21.78c-14.27,4.28-27.52,8.79-39.62,13.27l-.23.09c-30.79,11.08-74.55,28.56-122.38,63l-2.89,0,1.45-1.36c7-6.57,16.1-14.56,27.16-23,28.82-22.1,53.39-34.05,74.83-44.34,0,0,7.54-3.62,20.57-9l.45-.18.92-.37c7.66-3.05,15.09-5.85,22.23-8.52a644.31,644.31,0,0,1,117.16-31.66l.19,0c5.09-.78,9.44-1.36,11.6-1.53,3.23-.26,5.56-.47,7.27-.63Z" transform="translate(-418 -316.55)"/><path class="cls-2" d="M750.5,468.5c47.69-34.58,91.41-52.25,122.17-63.46-43.07,16.21-71.5,32.11-79.17,36.46-17.25,9.8-31.63,19.23-42.75,27Z" transform="translate(-418 -316.55)"/><path class="cls-3" d="M989.16,353.05c6.12-1.31,15.3-2.92,22.87-4.11A649.33,649.33,0,0,0,894.9,381.16c-7.13,2.71-14.55,5.54-22.21,8.62C897.38,379.53,940.48,363.41,989.16,353.05Z" transform="translate(-418 -316.55)"/><path class="cls-2" d="M1034.09,366.75q-10.23,1.1-20,2.46,10.35-1.51,20-2.63Z" transform="translate(-418 -316.55)"/><path class="cls-3" d="M731.08,468.5h-3.65l-.7-.52a452.35,452.35,0,0,0-48.57-31.56l-.15-.09q-4.14-2.41-8.51-4.83c-36.59-20.26-68.65-31.66-97.51-40.42a697.26,697.26,0,0,0-116-27l-1-.16c-5-.75-10.09-1.48-15.28-2.16L441.89,346c1.86.16,3.73.34,5.61.52q9.81,1,19.15,2.12l0,.25a560,560,0,0,1,55.93,12h0a662.18,662.18,0,0,1,103.62,39.89l.45.22.29.15.35.18c7.65,4,16,8.47,24.92,13.57l.44.26,2,1.14c20.1,11.76,35.58,22.48,46.22,29.91C713.09,454.73,723.33,462.46,731.08,468.5Z" transform="translate(-418 -316.55)"/><path class="cls-3" d="M522.54,360.84a560,560,0,0,0-55.93-12l0-.25q3.53.44,7,.9s12.09,1.91,25.13,5C506.87,356.49,514.81,358.61,522.54,360.84Z" transform="translate(-418 -316.55)"/><path class="cls-2" d="M456,364.08a697.26,697.26,0,0,1,116,27c-7.72-2.34-15.21-4.5-22.49-6.58A754.49,754.49,0,0,0,456,364.08Z" transform="translate(-418 -316.55)"/><path class="cls-2" d="M652.18,414.85c-8.9-5.1-17.27-9.62-24.92-13.57l1.17.59C636.94,406.25,644.86,410.61,652.18,414.85Z" transform="translate(-418 -316.55)"/><path class="cls-2" d="M727.43,468.5H726.3a473,473,0,0,0-48.14-32.08A452.35,452.35,0,0,1,726.73,468Z" transform="translate(-418 -316.55)"/><path class="cls-2" d="M439.64,361.76q-5-.66-10.14-1.26" transform="translate(-418 -316.55)"/><line class="cls-2" x1="313.5" y1="151.95" x2="313.08" y2="151.95"/><line class="cls-2" x1="329.61" y1="151.95" x2="329.5" y2="151.95"/></g></svg>