<?xml version="1.0" encoding="UTF-8" standalone="no" ?>
<!DOCTYPE svg PUBLIC "-//W3C//DTD SVG 1.1//EN" "http://www.w3.org/Graphics/SVG/1.1/DTD/svg11.dtd">
<svg xmlns="http://www.w3.org/2000/svg" xmlns:xlink="http://www.w3.org/1999/xlink" version="1.1" width="500" height="500" viewBox="0 0 500 500" xml:space="preserve">
<desc>Created with Fabric.js 5.2.4</desc>
<defs>
</defs>
<rect x="0" y="0" width="100%" height="100%" fill="transparent"></rect>
<g transform="matrix(Infinity NaN NaN Infinity 0 0)" id="99e34b00-67dc-4a90-90af-816a85a26981"  >
</g>
<g transform="matrix(1 0 0 1 250 250)" id="e01c050f-91bd-4b89-a088-0046a5b98529"  >
<rect style="stroke: none; stroke-width: 1; stroke-dasharray: none; stroke-linecap: butt; stroke-dashoffset: 0; stroke-linejoin: miter; stroke-miterlimit: 4; fill: rgb(255,255,255); fill-rule: nonzero; opacity: 1; visibility: hidden;" vector-effect="non-scaling-stroke"  x="-250" y="-250" rx="0" ry="0" width="500" height="500" />
</g>
<g transform="matrix(0.57 0 0 0.57 249.92 251.32)"  >
<path style="stroke: none; stroke-width: 1; stroke-dasharray: none; stroke-linecap: butt; stroke-dashoffset: 0; stroke-linejoin: miter; stroke-miterlimit: 4; fill: rgb(222,185,146); fill-rule: nonzero; opacity: 1;" vector-effect="non-scaling-stroke"  transform=" translate(-350, -242.04)" d="M 414 242.04 C 414 277.388 385.344 306.044 349.996 306.044 C 314.64799999999997 306.044 285.99199999999996 277.388 285.99199999999996 242.03999999999996 C 285.99199999999996 206.69199999999995 314.64799999999997 178.03599999999994 349.996 178.03599999999994 C 385.344 178.03599999999994 414 206.69199999999995 414 242.03999999999996" stroke-linecap="round" />
</g>
<g transform="matrix(0.57 0 0 0.57 250 314.12)"  >
<path style="stroke: none; stroke-width: 1; stroke-dasharray: none; stroke-linecap: butt; stroke-dashoffset: 0; stroke-linejoin: miter; stroke-miterlimit: 4; fill: rgb(222,185,146); fill-rule: nonzero; opacity: 1;" vector-effect="non-scaling-stroke"  transform=" translate(-350, -352.19)" d="M 541.31 257.8 L 472.34899999999993 177.687 C 463.28259999999995 167.15200000000002 447.3879999999999 165.96 436.8689999999999 175.0268 C 426.3259999999999 184.0932 425.1309999999999 199.9918 434.1970999999999 210.5268 L 485.85709999999995 270.5348 L 418.61109999999996 315.30080000000004 C 418.48218999999995 315.39455000000004 418.38843999999995 315.50783 418.25953999999996 315.59768 C 417.61501 315.542992 416.99003999999996 315.40237 416.33374 315.40237 L 283.65373999999997 315.40237 C 283.0053 315.40237 282.37643999999995 315.54299000000003 281.73963999999995 315.58596 C 281.61463999999995 315.496117 281.52088999999995 315.39455 281.38807999999995 315.3008 L 214.14607999999993 270.5388 L 265.80607999999995 210.53079999999997 C 274.87247999999994 199.99179999999998 273.68107999999995 184.09679999999997 263.13417999999996 175.03079999999997 C 252.61117999999996 165.96439999999998 236.72017999999997 167.15579999999997 227.65417999999997 177.69489999999996 L 158.69317999999998 257.7999 C 151.55257999999998 266.089 150.86507999999998 277.6629 155.99398 286.6439 C 157.79088 291.3705 160.98228 295.61659999999995 165.50958 298.62789999999995 L 253.50158 357.20189999999997 C 254.86878 358.11596 256.30237999999997 358.8542 257.76718 359.4636 L 257.76718 509.56359999999995 C 257.76718 523.8606 269.36118 535.4466 283.65818 535.4466 L 416.33818 535.4466 C 430.63518000000005 535.4466 442.22918000000004 523.8606 442.22918000000004 509.5636 L 442.22918000000004 359.46360000000004 C 443.69798000000003 358.85422000000005 445.13148000000007 358.11590000000007 446.50648000000007 357.2019 L 534.4984800000001 298.6279 C 539.0296800000001 295.6162 542.2093800000001 291.374 544.01408 286.6589 C 549.1429800000001 277.6628 548.4554800000001 266.09290000000004 541.3109800000001 257.7959 z" stroke-linecap="round" />
</g>
<g transform="matrix(0.57 0 0 0.57 234.09 151.31)"  >
<path style="stroke: none; stroke-width: 1; stroke-dasharray: none; stroke-linecap: butt; stroke-dashoffset: 0; stroke-linejoin: miter; stroke-miterlimit: 4; fill: rgb(222,185,146); fill-rule: nonzero; opacity: 1;" vector-effect="non-scaling-stroke"  transform=" translate(-322.22, -66.43)" d="M 314.46 46.762 C 324.03029999999995 46.94169 327.99899999999997 51.2737 327.99899999999997 57.414 C 327.99899999999997 63.187400000000004 322.58489999999995 69.152 316.44399999999996 75.828 C 307.95959999999997 85.0389 305.24899999999997 94.60900000000001 305.60799999999995 103.273 L 305.78768999999994 108.32379999999999 L 331.07268999999997 108.32379999999999 L 331.07268999999997 105.43319999999999 C 330.893 97.30819999999999 333.59999 89.91019999999999 340.63908999999995 82.67919999999998 C 347.68208999999996 75.63619999999997 356.88908999999995 67.15619999999998 356.88908999999995 52.702199999999976 C 356.88908999999995 36.995199999999976 344.61608999999993 24.538199999999975 320.78009 24.538199999999975 C 306.51009 24.538199999999975 295.14309 28.331199999999974 287.55309 32.663199999999975 L 294.41249 52.69819999999997 C 299.65859 49.284099999999974 307.78349 46.76069999999997 314.45949 46.76069999999997 z" stroke-linecap="round" />
</g>
<g transform="matrix(0.57 0 0 0.57 231.4 189.54)"  >
<path style="stroke: none; stroke-width: 1; stroke-dasharray: none; stroke-linecap: butt; stroke-dashoffset: 0; stroke-linejoin: miter; stroke-miterlimit: 4; fill: rgb(222,185,146); fill-rule: nonzero; opacity: 1;" vector-effect="non-scaling-stroke"  transform=" translate(-317.53, -133.6)" d="M 317.53 116.63 C 307.421 116.63 300.561 123.673 300.561 133.599 C 300.561 143.349 307.4282 150.572 317.53 150.572 C 327.823 150.572 334.503 143.3493 334.503 133.599 C 334.503 123.6732 327.82329999999996 116.63 317.53 116.63 z" stroke-linecap="round" />
</g>
<g transform="matrix(0.57 0 0 0.57 283.9 158.64)"  >
<path style="stroke: none; stroke-width: 1; stroke-dasharray: none; stroke-linecap: butt; stroke-dashoffset: 0; stroke-linejoin: miter; stroke-miterlimit: 4; fill: rgb(222,185,146); fill-rule: nonzero; opacity: 1;" vector-effect="non-scaling-stroke"  transform=" translate(-409.71, -79.33)" d="M 404.27 65.535 C 410.9731 65.66391 413.75829999999996 68.6991 413.75829999999996 72.9998 C 413.75829999999996 77.04669999999999 409.96139999999997 81.2225 405.6645 85.9018 C 399.7192 92.3471 397.82469999999995 99.0578 398.07469999999995 105.1288 L 398.19969999999995 108.6679 L 415.90669999999994 108.6679 L 415.90669999999994 106.64450000000001 C 415.78169999999994 100.9492 417.67619999999994 95.76950000000001 422.60979999999995 90.7065 C 427.54339999999996 85.769 433.99679999999995 79.8315 433.99679999999995 69.7145 C 433.99679999999995 58.7105 425.39519999999993 49.9845 408.6997999999999 49.9845 C 398.7075999999999 49.9845 390.7387999999999 52.6447 385.42979999999994 55.6798 L 390.23449999999997 69.7188 C 393.90639999999996 67.3126 399.59389999999996 65.5352 404.2695 65.5352 z" stroke-linecap="round" />
</g>
<g transform="matrix(0.57 0 0 0.57 282.03 185.42)"  >
<path style="stroke: none; stroke-width: 1; stroke-dasharray: none; stroke-linecap: butt; stroke-dashoffset: 0; stroke-linejoin: miter; stroke-miterlimit: 4; fill: rgb(222,185,146); fill-rule: nonzero; opacity: 1;" vector-effect="non-scaling-stroke"  transform=" translate(-406.43, -126.37)" d="M 406.43 114.48 C 399.3402 114.48 394.539 119.4136 394.539 126.37100000000001 C 394.539 133.19910000000002 399.33979999999997 138.25400000000002 406.43 138.25400000000002 C 413.637 138.25400000000002 418.313 133.1954 418.313 126.37100000000002 C 418.313 119.41400000000003 413.6372 114.48000000000002 406.43 114.48000000000002 z" stroke-linecap="round" />
</g>
</svg>