<?xml version="1.0" encoding="UTF-8" standalone="no" ?>
<!DOCTYPE svg PUBLIC "-//W3C//DTD SVG 1.1//EN" "http://www.w3.org/Graphics/SVG/1.1/DTD/svg11.dtd">
<svg xmlns="http://www.w3.org/2000/svg" xmlns:xlink="http://www.w3.org/1999/xlink" version="1.1" width="500" height="500" viewBox="0 0 500 500" xml:space="preserve">
<desc>Created with Fabric.js 5.2.4</desc>
<defs>
</defs>
<g transform="matrix(1 0 0 1 250 250)" id="af5ec78c-91e8-4407-9500-46e37678ac98"  >
<rect style="stroke: none; stroke-width: 1; stroke-dasharray: none; stroke-linecap: butt; stroke-dashoffset: 0; stroke-linejoin: miter; stroke-miterlimit: 4; fill: rgb(255,255,255); fill-rule: nonzero; opacity: 1; visibility: hidden;" vector-effect="non-scaling-stroke"  x="-250" y="-250" rx="0" ry="0" width="500" height="500" />
</g>
<g transform="matrix(Infinity NaN NaN Infinity 0 0)" id="5deddbbe-9117-4091-8e69-7a03cdc32b27"  >
</g>
<g transform="matrix(0.46 0 0 0.46 232 250)" id="8433a9cf-ada8-441f-ac57-f7910d7761a6"  >
<path style="stroke: rgb(0,0,0); stroke-width: 0; stroke-dasharray: none; stroke-linecap: butt; stroke-dashoffset: 0; stroke-linejoin: miter; stroke-miterlimit: 4; fill: rgb(222,185,146); fill-rule: nonzero; opacity: 1;" vector-effect="non-scaling-stroke"  transform=" translate(-511.61, -511.61)" d="M 195.2 195.2 C 220.19199049509209 170.21555594669678 260.70400950490784 170.21555594669678 285.6959999999999 195.19999999999996 L 512 421.504 L 738.304 195.2 C 763.416248765716 170.94577859148234 803.3334257293508 171.29264807058686 828.020388829382 195.979611170618 C 852.7073519294131 220.6665742706491 853.0542214085176 260.58375123428397 828.8 285.6959999999999 L 602.496 512 L 828.8 738.304 C 853.0542214085176 763.416248765716 852.7073519294131 803.3334257293508 828.020388829382 828.020388829382 C 803.3334257293508 852.7073519294131 763.416248765716 853.0542214085176 738.304 828.8 L 512 602.496 L 285.696 828.8 C 260.5837512342841 853.0542214085176 220.6665742706492 852.7073519294131 195.97961117061806 828.020388829382 C 171.29264807058692 803.3334257293508 170.9457785914824 763.416248765716 195.20000000000005 738.304 L 421.504 512 L 195.2 285.696 C 170.21555594669678 260.70400950490796 170.21555594669678 220.19199049509217 195.2 195.20000000000005 z" stroke-linecap="round" />
</g>
</svg>