<?xml version="1.0" encoding="UTF-8" standalone="no" ?>
<!DOCTYPE svg PUBLIC "-//W3C//DTD SVG 1.1//EN" "http://www.w3.org/Graphics/SVG/1.1/DTD/svg11.dtd">
<svg xmlns="http://www.w3.org/2000/svg" xmlns:xlink="http://www.w3.org/1999/xlink" version="1.1" width="250" height="100" viewBox="69.55 -5.45 250 100" xml:space="preserve">
<desc>Created with Fabric.js 5.2.4</desc>
<defs>
</defs>
<rect x="0" y="0" width="100%" height="100%" fill="transparent"></rect>
<g transform="matrix(1 0 0 1 125 50)" id="cbabfc5c-60d4-46fc-a2a5-547b3439a16b"  >
<rect style="stroke: none; stroke-width: 1; stroke-dasharray: none; stroke-linecap: butt; stroke-dashoffset: 0; stroke-linejoin: miter; stroke-miterlimit: 4; fill: rgb(255,255,255); fill-rule: nonzero; opacity: 1; visibility: hidden;" vector-effect="non-scaling-stroke"  x="-125" y="-50" rx="0" ry="0" width="250" height="100" />
</g>
<g transform="matrix(Infinity NaN NaN Infinity 0 0)" id="cea023d5-2bfe-4782-b264-4a58d4d5304a"  >
</g>
<g transform="matrix(0.92 0 0 1.02 99.5 50)" id="fc00e82b-ca1e-470d-951b-410204acbf14"  >
<path style="stroke: rgb(0,0,0); stroke-width: 0; stroke-dasharray: none; stroke-linecap: butt; stroke-dashoffset: 0; stroke-linejoin: miter; stroke-miterlimit: 4; fill: rgb(222,185,146); fill-rule: nonzero; opacity: 1;" vector-effect="non-scaling-stroke"  transform=" translate(-31.99, -32.01)" d="M 13.36 21.78 L 8.209999999999999 46.24 C 8.01 47.18 8.29 48.160000000000004 8.94 48.86 L 18.93 59.519999999999996 C 19.21 59.81999999999999 19.6 59.989999999999995 20.009999999999998 60.01 L 20.06 60.01 C 20.45 60.01 20.83 59.86 21.11 59.589999999999996 C 21.33 59.379999999999995 21.49 59.12 21.56 58.81999999999999 L 23.729999999999997 49.72999999999999 L 30.629999999999995 53.33999999999999 C 31.479999999999997 53.77999999999999 32.489999999999995 53.77999999999999 33.349999999999994 53.33999999999999 L 40.24999999999999 49.72999999999999 L 42.419999999999995 58.81999999999999 C 42.62 59.64999999999999 43.449999999999996 60.16 44.279999999999994 59.959999999999994 C 44.56999999999999 59.88999999999999 44.839999999999996 59.739999999999995 45.05 59.519999999999996 L 55.04 48.86 C 55.699999999999996 48.16 55.97 47.18 55.769999999999996 46.24 L 50.62 21.78 C 50.46 21.03 50.199999999999996 20.310000000000002 49.83 19.630000000000003 L 43.37 7.710000000000003 L 45.08 6.400000000000002 C 45.67 5.950000000000002 45.78 5.110000000000002 45.33 4.520000000000002 C 45.08 4.190000000000002 44.68 4.000000000000002 44.269999999999996 4.000000000000002 L 19.72 4.000000000000002 C 18.98 4.000000000000002 18.38 4.600000000000001 18.38 5.340000000000002 C 18.38 5.760000000000002 18.58 6.150000000000002 18.91 6.410000000000002 L 20.62 7.720000000000002 L 14.16 19.64 C 13.790000000000001 20.310000000000002 13.53 21.04 13.370000000000001 21.79 Z M 20.12 4.82 L 20.12 4.82 Z M 15.22 22.69 L 25.84 30.18 L 10.629999999999999 44.519999999999996 L 15.229999999999999 22.699999999999996 Z M 19.82 57.519999999999996 L 10.41 47.48 L 10.41 47.48 L 25.67 33.089999999999996 L 19.830000000000002 57.519999999999996 Z M 32.44 51.55 C 32.169999999999995 51.69 31.849999999999998 51.69 31.58 51.55 L 24.229999999999997 47.709999999999994 L 28.159999999999997 31.279999999999994 C 28.399999999999995 30.279999999999994 28.009999999999998 29.259999999999994 27.169999999999998 28.669999999999995 L 25.65 27.599999999999994 L 32.01 22.669999999999995 L 38.37 27.599999999999994 L 36.849999999999994 28.669999999999995 C 36.00999999999999 29.259999999999994 35.62 30.289999999999996 35.85999999999999 31.279999999999994 L 39.78999999999999 47.709999999999994 L 32.43999999999999 51.55 Z M 27.709999999999997 16.809999999999995 C 27.65 16.759999999999994 27.63 16.679999999999996 27.669999999999998 16.609999999999996 L 29.069999999999997 14.179999999999996 L 30.589999999999996 15.349999999999996 C 31.419999999999995 15.979999999999997 32.58 15.989999999999997 33.41 15.349999999999996 L 34.93 14.179999999999996 L 36.33 16.609999999999996 C 36.37 16.679999999999996 36.35 16.759999999999994 36.29 16.809999999999995 L 32 20.129999999999995 L 27.71 16.809999999999995 Z M 44.19 57.519999999999996 L 38.349999999999994 33.089999999999996 L 53.60999999999999 47.47 L 53.60999999999999 47.47 L 44.19999999999999 57.519999999999996 Z M 53.39 44.51 L 38.18 30.169999999999998 L 48.8 22.68 L 53.4 44.5 Z M 48.14 20.7 L 40.08 26.38 L 33.64 21.4 L 37.52 18.39 C 38.370000000000005 17.73 38.61000000000001 16.54 38.07 15.610000000000001 L 36.54 12.96 L 41.78 8.950000000000001 C 48.09 20.590000000000003 47.59 19.64 48.13 20.71 Z M 42.35 5.989999999999998 L 41.5 6.639999999999999 L 41.5 6.639999999999999 L 32.2 13.759999999999998 C 32.080000000000005 13.849999999999998 31.92 13.849999999999998 31.810000000000002 13.759999999999998 L 22.51 6.639999999999998 L 22.51 6.639999999999998 L 21.66 5.9899999999999975 L 42.35 5.9899999999999975 Z M 22.23 8.939999999999998 L 27.47 12.949999999999998 L 25.939999999999998 15.599999999999998 C 25.4 16.529999999999998 25.639999999999997 17.729999999999997 26.49 18.38 L 30.369999999999997 21.39 L 23.929999999999996 26.37 L 15.869999999999996 20.69 C 16.429999999999996 19.6 15.929999999999996 20.55 22.219999999999995 8.930000000000001 Z" stroke-linecap="round" />
</g>
<g transform="matrix(0.08 0 0 0.25 193.05 36.22)" style="" id="31b0e26f-3ba1-4ceb-8206-8f23bec955d8"  >
		<text xml:space="preserve" font-family="Raleway" font-size="174" font-style="normal" font-weight="900" style="stroke: none; stroke-width: 1; stroke-dasharray: none; stroke-linecap: butt; stroke-dashoffset: 0; stroke-linejoin: miter; stroke-miterlimit: 4; fill: rgb(222,185,146); fill-rule: nonzero; opacity: 1; white-space: pre;" ><tspan x="-790.13" y="54.66" >A</tspan><tspan x="-623.62" y="54.66" >R</tspan><tspan x="-457.27" y="54.66" >C</tspan><tspan x="-286.58" y="54.66" >H</tspan><tspan x="-105.62" y="54.66" >I</tspan><tspan x="0" y="54.66" >M</tspan><tspan x="199.06" y="54.66" >E</tspan><tspan x="353.39" y="54.66" >D</tspan><tspan x="528.44" y="54.66" >E</tspan><tspan x="682.78" y="54.66" >S</tspan></text>
</g>
</svg>