<?xml version="1.0" encoding="UTF-8" standalone="no" ?>
<!DOCTYPE svg PUBLIC "-//W3C//DTD SVG 1.1//EN" "http://www.w3.org/Graphics/SVG/1.1/DTD/svg11.dtd">
<svg xmlns="http://www.w3.org/2000/svg" xmlns:xlink="http://www.w3.org/1999/xlink" version="1.1" width="1080" height="1080" viewBox="0 0 1080 1080" xml:space="preserve">
<desc>Created with Fabric.js 5.2.4</desc>
<defs>
</defs>
<rect x="0" y="0" width="100%" height="100%" fill="transparent"></rect>
<g transform="matrix(1 0 0 1 540 540)" id="81185a33-0daf-4423-ab47-2ccd91a58e68"  >
<rect style="stroke: none; stroke-width: 1; stroke-dasharray: none; stroke-linecap: butt; stroke-dashoffset: 0; stroke-linejoin: miter; stroke-miterlimit: 4; fill: rgb(255,255,255); fill-rule: nonzero; opacity: 1; visibility: hidden;" vector-effect="non-scaling-stroke"  x="-540" y="-540" rx="0" ry="0" width="1080" height="1080" />
</g>
<g transform="matrix(1 0 0 1 540 540)" id="3d7d9c12-a5f6-47bf-992f-3994168499d5"  >
</g>
<g transform="matrix(1 0 0 1 540 540)" id="b2709b82-455d-4b1c-b3d1-19699951e0ab"  >
<path style="stroke: rgb(0,0,0); stroke-width: 0; stroke-dasharray: none; stroke-linecap: butt; stroke-dashoffset: 0; stroke-linejoin: miter; stroke-miterlimit: 4; fill: rgb(222,185,146); fill-rule: nonzero; opacity: 1;" vector-effect="non-scaling-stroke"  transform=" translate(-12, -12)" d="M 10 5 C 7.23858 5 5 7.23858 5 10 C 5 12.7614 7.23858 15 10 15 C 11.381 15 12.6296 14.4415 13.5355 13.5355 C 14.4415 12.6296 15 11.381 15 10 C 15 7.23858 12.7614 5 10 5 Z M 3 10 C 3 6.13401 6.13401 3 10 3 C 13.866 3 17 6.13401 17 10 C 17 11.5719 16.481 13.0239 15.6063 14.1921 L 20.7071 19.2929 C 21.0976 19.6834 21.0976 20.3166 20.7071 20.7071 C 20.3166 21.0976 19.6834 21.0976 19.2929 20.7071 L 14.1921 15.6063 C 13.0239 16.481 11.5719 17 10 17 C 6.13401 17 3 13.866 3 10 Z" stroke-linecap="round" />
</g>
</svg>